<?xml version="1.0" standalone="no"?>
<!DOCTYPE svg PUBLIC "-//W3C//DTD SVG 20010904//EN"
 "http://www.w3.org/TR/2001/REC-SVG-20010904/DTD/svg10.dtd">
<svg version="1.0" xmlns="http://www.w3.org/2000/svg"
 width="260.000000pt" height="260.000000pt" viewBox="0 0 260.000000 260.000000"
 preserveAspectRatio="xMidYMid meet">
<metadata>
Created by potrace 1.14, written by Peter Selinger 2001-2017
</metadata>
<g transform="translate(0.000000,260.000000) scale(0.100000,-0.100000)"
fill="#000000" stroke="none">
<path d="M0 1300 l0 -1300 1300 0 1300 0 0 1300 0 1300 -1300 0 -1300 0 0
-1300z m1600 100 c63 -193 118 -350 122 -350 3 0 16 14 28 31 12 16 24 29 26
27 2 -2 -14 -60 -35 -129 l-38 -124 -69 -3 -70 -3 -142 436 c-79 240 -145 442
-149 450 -4 13 12 15 103 15 l109 -1 115 -349z m418 307 c-25 -24 -56 -67 -71
-97 -24 -50 -26 -52 -27 -25 -1 37 -34 112 -62 143 l-21 22 112 0 113 0 -44
-43z m-1357 -13 c-5 -22 -6 -56 -2 -79 19 -99 76 -151 210 -191 114 -35 170
-64 213 -112 43 -48 61 -99 61 -172 1 -71 -15 -125 -53 -182 -34 -52 -109
-116 -96 -82 4 10 12 44 18 74 23 122 -35 204 -182 259 -179 67 -224 95 -265
165 -59 101 -40 232 46 318 28 28 52 48 55 45 3 -3 1 -22 -5 -43z m351 29 c47
-4 72 -2 83 7 13 11 15 -2 15 -111 l0 -124 -24 51 c-27 58 -82 123 -141 167
-22 17 -31 27 -20 22 11 -4 50 -10 87 -12z m-405 -658 c31 -64 85 -129 137
-167 32 -24 36 -29 16 -24 -65 18 -139 19 -165 2 l-25 -16 1 142 c0 79 3 136
6 128 3 -8 17 -37 30 -65z"/>
</g>
</svg>
